<svg xmlns="http://www.w3.org/2000/svg" version="1.0" viewBox="0 0 1024 1024"><path fill-opacity=".1" d="M531.5 450.5c0 23.6.1 33.2.2 21.2.2-12 .2-31.4 0-43-.1-11.7-.2-1.9-.2 21.8m-96 163.5c0 50.3.1 70.9.2 45.8.2-25.2.2-66.4 0-91.5-.1-25.2-.2-4.6-.2 45.7m90.3 120.7c33.1.2 87.3.2 120.5 0 33.1-.1 6-.2-60.3-.2s-93.4.1-60.2.2"/><path fill-opacity=".3" d="M575.3 493.7c24 .2 63.4.2 87.5 0 24-.1 4.3-.2-43.8-.2s-67.8.1-43.7.2"/><path fill-opacity=".4" d="M347.4 435.5c0 15.4.2 21.6.3 13.7.2-7.9.2-20.5 0-28-.1-7.5-.3-1.1-.3 14.3m-59 1c0 14.8.2 21.1.3 13.8.2-7.2.2-19.4 0-27-.1-7.6-.3-1.7-.3 13.2M735.5 614c0 49.8.1 70.1.2 45.3.2-24.9.2-65.7 0-90.5-.1-24.9-.2-4.6-.2 45.2"/><path fill-opacity=".6" d="M472.5 451.5c0 23.1.1 32.4.2 20.7.2-11.7.2-30.6 0-42-.1-11.4-.2-1.8-.2 21.3"/><path d="M397.2 291.1c-46.6 5.4-85.8 36.5-101 80.1-6 17-6.4 20.3-6.9 58.1-.4 30.9-.3 35 1.1 37.2l1.6 2.5h25.9c22.8 0 26-.2 27.2-1.7 1.1-1.2 1.5-8.8 1.9-35.2.6-31 .8-34.1 2.8-40.1 6.5-19.4 21.5-34.4 40.6-40.7 6.7-2.1 10-2.6 19.1-2.7 17.7-.1 30.8 5 43.3 16.8 8.4 8 12.9 15 16.9 26.1l2.8 8 .3 47.1.3 47.1-6.8.5c-9 .7-16.2 3.9-21.6 9.7-8.8 9.4-8.2 1.9-8.2 110.6 0 95.9 0 96 2.1 100.6 3.1 6.7 8.7 12.4 15.2 15.6l5.7 2.8H585c121 0 125.7-.1 130.4-1.9 6.3-2.4 13-8.6 16.4-15.1l2.7-5v-195l-2.4-4.9c-3.1-6.3-8.3-11.5-14.6-14.6l-5-2.5-90.7-.3-90.8-.3v-42.5c0-23.6-.5-46.8-1.1-52.1-2.3-20.6-9.5-40.2-21.1-57-19.4-28.4-52.4-47.6-87.9-51.3-11.3-1.1-13.2-1.1-23.7.1m202.6 274.8c9.8 5 16.2 14.9 17 26 .6 8.8-1.5 16-6.8 22.9l-4 5.3 4.5 17.9c2.5 9.8 4.5 19.3 4.5 20.9 0 5.8-1.6 6.1-29.7 6.1-24 0-25.4-.1-27.3-2-1.1-1.1-2-3.1-2-4.5s2-10.7 4.5-20.6l4.6-18.1-3.1-3.4c-6.8-7.8-9.8-18-8-27.4 2.1-10.9 7.8-18.4 17.5-23.2 5.6-2.7 6.7-2.9 15-2.5 6.8.2 10 .9 13.3 2.6"/></svg>